<svg width="1200" height="630" viewBox="0 0 1200 630" fill="none" xmlns="http://www.w3.org/2000/svg">
  <rect width="1200" height="630" fill="#ffffff"/>
  <rect x="64" y="64" width="1072" height="502" fill="#f5f7fb"/>
  <path d="M92 120H1108" stroke="#0b1220" stroke-width="2"/>
  <path d="M92 510H1108" stroke="#0b1220" stroke-width="2"/>
  <path d="M838 64H1136L1046 566H748L838 64Z" fill="#0b1220"/>
  <path d="M838 64H872L782 566H748L838 64Z" fill="#175cff"/>
  <circle cx="921" cy="270" r="72" stroke="#ffffff" stroke-width="8"/>
  <circle cx="996" cy="342" r="88" stroke="#ffffff" stroke-opacity="0.42" stroke-width="5"/>
  <path d="M836 423C884 356 938 315 999 299C1038 289 1076 290 1114 303" stroke="#ffffff" stroke-width="10" stroke-linecap="round"/>
  <path d="M836 423C884 356 938 315 999 299C1038 289 1076 290 1114 303" stroke="#175cff" stroke-width="4" stroke-linecap="round"/>
  <circle cx="882" cy="365" r="14" fill="#ffffff"/>
  <circle cx="938" cy="326" r="14" fill="#ffffff"/>
  <circle cx="999" cy="299" r="14" fill="#ffffff"/>
  <circle cx="1062" cy="295" r="14" fill="#ffffff"/>
  <path d="M92 172H480" stroke="#d7deea" stroke-width="2"/>
  <path d="M92 224H360" stroke="#d7deea" stroke-width="2"/>
  <path d="M92 276H432" stroke="#d7deea" stroke-width="2"/>
  <text x="92" y="370" fill="#175cff" font-family="Arial, sans-serif" font-size="24" font-weight="700" letter-spacing="8">RESEARCH PORTFOLIO</text>
  <text x="92" y="440" fill="#0b1220" font-family="Arial, sans-serif" font-size="58" font-weight="900">Kouki Uchikura</text>
  <text x="92" y="492" fill="#334155" font-family="Arial, sans-serif" font-size="30" font-weight="700">Computer Vision / AI / Human Motion Analysis</text>
</svg>
